<svg width="51" height="50" viewBox="0 0 51 50" fill="none" xmlns="http://www.w3.org/2000/svg">
<path d="M25.0215 18.8679H7.07895C8.81533 14.282 14.0245 9.04088 18.6548 7.07547L25.0215 18.8679Z" fill="white"/>
<path d="M19.8304 22.417L10.8592 37.7358C7.69878 33.9604 5.69928 26.8924 6.28793 21.9565L19.8304 22.417Z" fill="white"/>
<path d="M20.4285 28.7849L29.3998 44.1038C24.5031 44.9143 17.2944 43.0874 13.2527 40.1169L20.4285 28.7849Z" fill="white"/>
<path d="M26.2177 31.4858L44.1603 31.4858C42.4239 36.0718 37.2148 41.3129 32.5844 43.2783L26.2177 31.4858Z" fill="white"/>
<path d="M31.1696 27.8188L40.1408 12.5C43.3012 16.2754 45.3007 23.3434 44.7121 28.2794L31.1696 27.8188Z" fill="white"/>
<path d="M30.5715 21.2151L21.6002 5.89623C26.4969 5.08572 33.7056 6.91258 37.7473 9.88313L30.5715 21.2151Z" fill="white"/>
</svg>
