<svg width="1613" height="1437" viewBox="0 0 1613 1437" fill="none" xmlns="http://www.w3.org/2000/svg">
<g opacity="0.05">
<path d="M889.671 633.668C889.671 656.4 874.093 674.823 854.88 674.823C835.663 674.823 820.104 656.4 820.104 633.668C820.104 610.942 835.663 592.505 854.88 592.505C874.097 592.516 889.671 610.942 889.671 633.668Z" fill="#3CB878"/>
<path d="M364.089 674.823C383.299 674.823 398.872 656.397 398.872 633.668C398.872 610.938 383.299 592.513 364.089 592.513C344.879 592.513 329.306 610.938 329.306 633.668C329.306 656.397 344.879 674.823 364.089 674.823Z" fill="#007335"/>
<path d="M985.396 673.607C1047 621.695 1102.86 582.192 1136.3 575.831L1211.35 500.78C1184.59 467.044 1153.13 436.836 1117.99 410.084C1117.58 409.774 1117.18 409.45 1116.77 409.137C1085.6 385.539 1051.54 364.674 1015.26 346.55C1015.26 346.535 1015.26 346.524 1015.27 346.513C1052.49 157.369 1174.34 9.47064 1178.92 3.97109C1179.01 3.86296 1179.07 3.79212 1179.07 3.79212C895.219 -29.7607 775.299 184.479 740.542 265.213C740.038 265.142 739.539 265.067 739.035 265C695.065 259.266 650.375 256.399 605.681 256.399V953.592C605.707 953.592 605.734 953.589 605.76 953.589C605.771 953.589 605.778 953.589 605.79 953.589C605.819 953.589 605.853 953.585 605.883 953.585C605.886 953.585 605.89 953.585 605.894 953.585C628.966 953.667 650.371 960.087 669.271 970.464C669.275 970.464 669.275 970.464 669.275 970.464C669.461 970.564 669.651 970.665 669.838 970.766C671.762 971.832 673.656 972.951 675.52 974.106C699.808 948.164 855.38 783.188 985.396 673.607ZM946.128 564.358C946.128 769.356 760.914 702.097 760.914 702.097C756.664 509.419 946.128 564.358 946.128 564.358Z" fill="#3CB878"/>
<path d="M470.817 265.216C436.06 184.487 316.144 -29.7608 32.2889 3.79201C32.2889 3.79201 32.3485 3.86285 32.438 3.97098C36.9421 9.38477 155.05 152.731 194.263 337.59C194.263 337.594 194.266 337.594 194.266 337.598C194.893 340.555 195.501 343.522 196.086 346.502C196.09 346.535 196.101 346.572 196.108 346.602C159.349 364.969 124.898 386.165 93.3879 410.136C58.2393 436.866 26.7558 467.052 0 500.78L75.245 576.029C108.701 582.509 164.435 621.923 225.884 673.708C355.972 783.337 511.671 948.462 535.861 974.3C523.221 982.16 511.976 991.977 502.607 1003.39L502.674 1003.46C513.505 990.247 526.842 979.158 541.961 970.773C542.088 970.706 542.214 970.639 542.341 970.572C561.226 960.162 582.632 953.715 605.685 953.596V256.402C560.473 256.402 515.276 259.351 470.817 265.216ZM450.437 702.097C450.437 702.097 265.224 769.355 265.224 564.358C265.224 564.358 454.699 509.419 450.437 702.097Z" fill="#007335"/>
<path d="M675.52 974.11C675.505 974.125 675.487 974.144 675.475 974.159C688.137 982.003 699.409 991.809 708.805 1003.21L703.79 1008.23L703.849 1008.29C703.849 1008.29 705.632 1006.51 708.924 1003.22C699.506 991.791 688.212 981.966 675.52 974.11Z" fill="#F6F3CF"/>
<path d="M675.475 974.159C673.585 972.988 671.669 971.858 669.719 970.773C669.532 970.673 669.342 970.572 669.156 970.471C669.156 970.471 669.156 970.471 669.152 970.471C650.252 960.095 628.85 953.675 605.775 953.593C605.771 953.593 605.767 953.593 605.767 953.593C605.734 953.593 605.7 953.596 605.67 953.596C605.659 953.596 605.652 953.596 605.64 953.596C605.614 953.596 605.585 953.6 605.562 953.6C582.509 953.716 561.107 960.166 542.222 970.576C542.095 970.643 541.969 970.71 541.842 970.777C539.814 971.903 537.826 973.085 535.865 974.304C523.199 982.179 511.936 992.019 502.555 1003.46L507.525 1008.42L605.45 1106.35V1106.58L605.566 1106.47L605.678 1106.58V1106.35L703.793 1008.24L708.808 1003.22C699.405 991.81 688.134 982.008 675.475 974.159Z" fill="#3C3C3B"/>
<path d="M1015.26 346.513C1015.26 346.524 1015.26 346.535 1015.26 346.55C1051.54 364.674 1085.6 385.539 1116.77 409.137C1117.18 409.45 1117.58 409.774 1117.99 410.084C1152.1 333.623 1177.06 189.304 1179.06 3.79199C1179.06 3.79199 1179 3.86283 1178.91 3.97096C1174.34 9.47051 1052.49 157.369 1015.26 346.513Z" fill="#3C3C3B"/>
<path d="M1015.27 346.513C1052.49 157.37 1174.34 9.47086 1178.92 3.97131C1174.34 9.47459 1052.49 157.37 1015.27 346.513Z" fill="#3C3C3B"/>
<path d="M196.082 346.498C195.497 343.519 194.889 340.551 194.262 337.594C194.262 337.59 194.262 337.59 194.259 337.587C155.046 152.731 36.938 9.38103 32.4377 3.97096C32.3482 3.86283 32.2886 3.79199 32.2886 3.79199C34.2908 189.345 59.2606 333.683 93.3839 410.132C124.894 386.162 159.345 364.965 196.104 346.598C196.097 346.569 196.089 346.531 196.082 346.498Z" fill="#3C3C3B"/>
<path d="M32.4377 3.97131C36.9418 9.38138 155.05 152.728 194.262 337.591C155.046 152.735 36.9418 9.38511 32.4377 3.97131Z" fill="#3C3C3B"/>
<path d="M194.267 337.598C194.893 340.555 195.501 343.523 196.086 346.502C195.497 343.519 194.893 340.555 194.267 337.598Z" fill="#3C3C3B"/>
<path d="M605.67 1106.35V1106.57L605.558 1106.46L605.443 1106.57V1106.35L507.517 1008.42L507.495 1008.44C507.495 1008.44 336.435 837.378 205.299 706.243C166.456 773.848 144.241 852.221 144.241 935.781C144.241 1190.63 350.834 1397.22 605.674 1397.22C605.674 1397.22 605.674 1397.22 605.678 1397.22V1106.33L605.67 1106.35Z" fill="#007335"/>
<path d="M1298.6 839.5C1296.07 757.823 1346.25 657.295 1346.25 657.295C1289.05 654.6 1231.62 676.076 1182.53 703.424C1262.14 534.855 1503.33 410.151 1503.33 410.151C1503.33 410.151 1776.49 674.238 1460.6 973.622C1490.27 844.265 1446.31 733.502 1446.31 733.502C1397.74 813.128 1298.6 839.5 1298.6 839.5Z" fill="#FFFFFB"/>
<path d="M1446.31 733.498C1397.74 813.124 1298.6 839.5 1298.6 839.5C1296.07 757.823 1346.25 657.295 1346.25 657.295C1289.05 654.599 1231.62 676.076 1182.53 703.424C1175.79 717.697 1169.85 732.164 1165.66 747.011C1146.09 816.644 1112.41 885.413 1067.03 942.194C1065.64 1044 1031.3 1137.84 974.166 1213.53C1084.98 1204.68 1227.09 1158.77 1393.6 1030.72C1418.45 1011.58 1440.6 992.529 1460.6 973.622C1490.26 844.261 1446.31 733.498 1446.31 733.498Z" fill="#3CB878"/>
<path d="M1006 706.142C874.865 837.274 703.846 1008.29 703.846 1008.29L703.786 1008.23L605.678 1106.34V1397.22C756.239 1397.22 889.943 1325.1 974.166 1213.53C1031.3 1137.84 1065.64 1044 1067.03 942.194C1067.06 940.061 1067.11 937.929 1067.11 935.785C1067.11 852.181 1044.87 773.774 1006 706.142Z" fill="#3CB878"/>
<path d="M985.396 673.608C855.376 783.192 699.808 948.167 675.52 974.114C688.212 981.966 699.509 991.791 708.92 1003.22C723.129 989.009 765.936 946.202 819.735 892.4L1136.3 575.835C1102.86 582.192 1046.99 621.696 985.396 673.608Z" fill="#FFFFFB"/>
<path d="M535.861 974.301C511.674 948.462 355.971 783.338 225.884 673.708C164.438 621.919 108.701 582.509 75.2446 576.029L502.603 1003.39C511.972 991.977 523.221 982.164 535.861 974.301Z" fill="#FFFFE1"/>
<path d="M427.955 1283.97C343.948 1283.97 275.813 1352.08 275.813 1436.1H580.097C580.097 1352.08 511.958 1283.97 427.955 1283.97Z" fill="#3C3C3B"/>
<path d="M779.579 1283.97C695.561 1283.97 627.433 1352.08 627.433 1436.1H931.691C931.691 1352.08 863.616 1283.97 779.579 1283.97Z" fill="#3C3C3B"/>
</g>
</svg>
