<svg width="433" height="386" viewBox="0 0 433 386" fill="none" xmlns="http://www.w3.org/2000/svg">
<path d="M238.613 169.883C238.613 175.98 234.435 180.921 229.282 180.921C224.128 180.921 219.955 175.98 219.955 169.883C219.955 163.788 224.128 158.843 229.282 158.843C234.436 158.846 238.613 163.788 238.613 169.883Z" fill="#4B4B4B"/>
<path d="M97.6503 180.921C102.803 180.921 106.979 175.979 106.979 169.883C106.979 163.787 102.803 158.845 97.6503 158.845C92.498 158.845 88.3213 163.787 88.3213 169.883C88.3213 175.979 92.498 180.921 97.6503 180.921Z" fill="#4B4B4B"/>
<path d="M264.287 180.595C280.808 166.672 295.791 156.077 304.76 154.371L324.889 134.242C317.711 125.194 309.273 117.092 299.849 109.917C299.74 109.834 299.633 109.747 299.523 109.663C291.163 103.334 282.028 97.7379 272.296 92.8769C272.296 92.8729 272.297 92.8699 272.298 92.8669C282.281 42.1379 314.962 2.47092 316.19 0.995917C316.214 0.966917 316.23 0.947917 316.23 0.947917C240.101 -8.05108 207.938 49.4089 198.616 71.0619C198.481 71.0429 198.347 71.0229 198.212 71.0049C186.419 69.4669 174.433 68.6979 162.446 68.6979V255.688C162.453 255.688 162.46 255.687 162.467 255.687C162.47 255.687 162.472 255.687 162.475 255.687C162.483 255.687 162.492 255.686 162.5 255.686C162.501 255.686 162.502 255.686 162.503 255.686C168.691 255.708 174.432 257.43 179.501 260.213C179.502 260.213 179.502 260.213 179.502 260.213C179.552 260.24 179.603 260.267 179.653 260.294C180.169 260.58 180.677 260.88 181.177 261.19C187.691 254.232 229.416 209.985 264.287 180.595ZM253.755 151.294C253.755 206.275 204.08 188.236 204.08 188.236C202.94 136.559 253.755 151.294 253.755 151.294Z" fill="#212121"/>
<path d="M126.275 71.0629C116.953 49.4109 84.791 -8.05111 8.66 0.947888C8.66 0.947888 8.676 0.966888 8.7 0.995888C9.908 2.44789 41.585 40.8939 52.102 90.4739C52.102 90.4749 52.103 90.4749 52.103 90.4759C52.271 91.2689 52.434 92.0649 52.591 92.8639C52.592 92.8729 52.595 92.8829 52.597 92.8909C42.738 97.8169 33.498 103.502 25.047 109.931C15.62 117.1 7.176 125.196 0 134.242L20.181 154.424C29.154 156.162 44.102 166.733 60.583 180.622C95.473 210.025 137.232 254.312 143.72 261.242C140.33 263.35 137.314 265.983 134.801 269.044L134.819 269.062C137.724 265.519 141.301 262.545 145.356 260.296C145.39 260.278 145.424 260.26 145.458 260.242C150.523 257.45 156.264 255.721 162.447 255.689V68.6989C150.321 68.6989 138.199 69.4899 126.275 71.0629ZM120.809 188.236C120.809 188.236 71.134 206.275 71.134 151.294C71.134 151.294 121.952 136.559 120.809 188.236Z" fill="black"/>
<path d="M181.165 261.204C180.658 260.89 180.144 260.587 179.621 260.296C179.571 260.269 179.52 260.242 179.47 260.215C179.47 260.215 179.47 260.215 179.469 260.215C174.4 257.432 168.66 255.71 162.471 255.688C162.47 255.688 162.469 255.688 162.469 255.688C162.46 255.688 162.451 255.689 162.443 255.689C162.44 255.689 162.438 255.689 162.435 255.689C162.428 255.689 162.42 255.69 162.414 255.69C156.231 255.721 150.491 257.451 145.426 260.243C145.392 260.261 145.358 260.279 145.324 260.297C144.78 260.599 144.247 260.916 143.721 261.243C140.324 263.355 137.303 265.994 134.787 269.062L136.12 270.394L162.384 296.658V296.719L162.415 296.689L162.445 296.719V296.658L188.76 270.344L190.105 268.998C187.583 265.938 184.56 263.309 181.165 261.204Z" fill="#212121"/>
<path d="M272.298 92.8668C272.297 92.8698 272.297 92.8728 272.296 92.8768C282.027 97.7378 291.163 103.334 299.523 109.663C299.633 109.747 299.74 109.834 299.849 109.917C308.998 89.4098 315.693 50.7028 316.229 0.947754C316.229 0.947754 316.213 0.966754 316.189 0.995754C314.963 2.47075 282.282 42.1378 272.298 92.8668Z" fill="#4B4B4B"/>
<path d="M272.298 92.8671C282.281 42.1381 314.963 2.47109 316.19 0.996094C314.962 2.47209 282.282 42.1381 272.298 92.8671Z" fill="#3C3C3B"/>
<path d="M52.5902 92.8628C52.4332 92.0638 52.2702 91.2678 52.1022 90.4748C52.1022 90.4738 52.1022 90.4738 52.1012 90.4728C41.5842 40.8938 9.90716 2.44675 8.70016 0.995754C8.67616 0.966754 8.66016 0.947754 8.66016 0.947754C9.19716 50.7138 15.8942 89.4258 25.0462 109.93C33.4972 103.501 42.7372 97.8158 52.5962 92.8898C52.5942 92.8818 52.5922 92.8718 52.5902 92.8628Z" fill="#4B4B4B"/>
<path d="M8.7002 0.996094C9.9082 2.44709 41.5852 40.8931 52.1022 90.4741C41.5842 40.8951 9.9082 2.44809 8.7002 0.996094Z" fill="#3C3C3B"/>
<path d="M52.1025 90.4761C52.2705 91.2691 52.4335 92.0651 52.5905 92.8641C52.4325 92.0641 52.2705 91.2691 52.1025 90.4761Z" fill="#3C3C3B"/>
<path d="M162.443 296.657V296.718L162.413 296.688L162.382 296.718V296.657L136.118 270.393L136.112 270.399C136.112 270.399 90.2325 224.519 55.0615 189.348C44.6435 207.48 38.6855 228.5 38.6855 250.911C38.6855 319.262 94.0945 374.67 162.444 374.67C162.444 374.67 162.444 374.67 162.445 374.67V296.654L162.443 296.657Z" fill="black"/>
<path d="M348.289 225.088C347.612 203.182 361.069 176.22 361.069 176.22C345.729 175.497 330.325 181.257 317.16 188.592C338.51 143.381 403.198 109.935 403.198 109.935C403.198 109.935 476.462 180.764 391.739 261.06C399.695 226.366 387.906 196.659 387.906 196.659C374.879 218.015 348.289 225.088 348.289 225.088Z" fill="#4B4B4B"/>
<path d="M387.906 196.658C374.88 218.014 348.289 225.088 348.289 225.088C347.612 203.182 361.069 176.22 361.069 176.22C345.729 175.497 330.325 181.257 317.16 188.592C315.351 192.42 313.758 196.3 312.635 200.282C307.386 218.958 298.352 237.402 286.181 252.631C285.809 279.937 276.599 305.105 261.275 325.404C290.995 323.031 329.111 310.718 373.768 276.375C380.434 271.24 386.375 266.131 391.738 261.06C399.694 226.365 387.906 196.658 387.906 196.658Z" fill="#212121"/>
<path d="M269.812 189.321C234.642 224.491 188.774 270.358 188.774 270.358L188.758 270.342L162.445 296.655V374.671C202.826 374.671 238.686 355.327 261.275 325.404C276.599 305.104 285.809 279.936 286.181 252.631C286.189 252.059 286.203 251.487 286.203 250.912C286.203 228.489 280.239 207.46 269.812 189.321Z" fill="#212121"/>
<path d="M264.287 180.595C229.415 209.986 187.691 254.233 181.177 261.192C184.581 263.298 187.611 265.933 190.135 268.998C193.946 265.187 205.427 253.706 219.856 239.276L304.76 154.372C295.791 156.077 280.808 166.672 264.287 180.595Z" fill="#4B4B4B"/>
<path d="M143.72 261.242C137.233 254.312 95.4727 210.025 60.5827 180.622C44.1027 166.732 29.1537 156.162 20.1807 154.424L134.8 269.044C137.313 265.983 140.33 263.351 143.72 261.242Z" fill="#4B4B4B"/>
<path d="M114.779 344.297C92.2476 344.297 73.9736 362.564 73.9736 385.098H155.584C155.584 362.563 137.309 344.297 114.779 344.297Z" fill="#4B4B4B"/>
<path d="M209.085 344.297C186.551 344.297 168.279 362.564 168.279 385.098H249.882C249.882 362.563 231.624 344.297 209.085 344.297Z" fill="#4B4B4B"/>
</svg>
